<svg id="Capa_2" data-name="Capa 2" xmlns="http://www.w3.org/2000/svg" viewBox="0 0 148 126.78"><defs><style>.cls-1{fill:#8f6b62;}</style></defs><rect class="cls-1" x="22" y="40.78" width="63.5" height="6"/><rect class="cls-1" x="22" y="64.78" width="64.5" height="6"/><rect class="cls-1" x="22" y="88.78" width="52.5" height="6"/><rect class="cls-1" x="22" y="113.78" width="63.5" height="6"/><path class="cls-1" d="M137,71.85V44.64L97.35,0H0V126.78H6V6H93.5V34.74c0,.82,0,7.1,4,11.31a12.64,12.64,0,0,0,9.5,3.73h24V67.94a30.5,30.5,0,1,0,0,54.68v4.16h6v-8.07a30.45,30.45,0,0,0,0-46.86ZM101.85,41.92c-2.47-2.55-2.35-7-2.35-7V11.46l28.71,32.32H107A6.8,6.8,0,0,1,101.85,41.92Zm15.65,77.86A24.5,24.5,0,1,1,142,95.28,24.53,24.53,0,0,1,117.5,119.78Z"/><path class="cls-1" d="M125,90.78l3,.33c.07-.61.58-6.11-2.56-9.62a7.85,7.85,0,0,0-3.92-2.38V77.85a2.5,2.5,0,0,0-5,0V79.1a8.19,8.19,0,0,0-5.54,5,9.75,9.75,0,0,0,3,11.29l7.18,5.74.14.11a3,3,0,0,1,.78,2.25,2.82,2.82,0,0,1-2.83,2.87,3.52,3.52,0,0,1-3.27-3.69h-6a9.43,9.43,0,0,0,6.55,9.2v.65a2.5,2.5,0,0,0,5,0V112a9.06,9.06,0,0,0,3.34-15.63L117.7,90.7a3.71,3.71,0,0,1-1.2-4.29,2.84,2.84,0,0,1,4.44-.93c1.16,1.29,1.17,4.1,1.08,5Z"/></svg>